<svg xmlns="http://www.w3.org/2000/svg" viewBox="0 0 512 512">

  <g fill="#e8e8e8" stroke="#1f5f35" stroke-width="14" stroke-linejoin="round">

    <!-- pétalo central -->
    <path d="M256 70 
             C220 140 220 200 256 260
             C292 200 292 140 256 70 Z"/>

    <!-- pétalo interior izquierdo -->
    <path d="M190 120
             C150 170 160 220 210 260
             C230 210 220 170 190 120 Z"/>

    <!-- pétalo interior derecho -->
    <path d="M322 120
             C362 170 352 220 302 260
             C282 210 292 170 322 120 Z"/>

    <!-- pétalo exterior izquierdo -->
    <path d="M110 210
             C120 270 190 300 240 300
             C200 250 170 220 110 210 Z"/>

    <!-- pétalo exterior derecho -->
    <path d="M402 210
             C392 270 322 300 272 300
             C312 250 342 220 402 210 Z"/>

    <!-- base izquierda -->
    <path d="M160 300
             C200 340 240 340 256 320
             C220 310 190 300 160 300 Z"/>

    <!-- base derecha -->
    <path d="M352 300
             C312 340 272 340 256 320
             C292 310 322 300 352 300 Z"/>

  </g>

</svg>